<svg xmlns="http://www.w3.org/2000/svg" xmlns:xlink="http://www.w3.org/1999/xlink" width="1000" zoomAndPan="magnify" viewBox="0 0 750 749.999995" height="1000" preserveAspectRatio="xMidYMid meet" version="1.0"><defs><clipPath id="4de178c031"><path d="M 34.972656 34.972656 L 715.222656 34.972656 L 715.222656 715.222656 L 34.972656 715.222656 Z M 34.972656 34.972656 " clip-rule="nonzero"/></clipPath><clipPath id="ecfbf1e326"><path d="M 145.632812 150.101562 L 357 150.101562 L 357 542 L 145.632812 542 Z M 145.632812 150.101562 " clip-rule="nonzero"/></clipPath><clipPath id="e90e998a9b"><path d="M 250 150.101562 L 627.882812 150.101562 L 627.882812 597.851562 L 250 597.851562 Z M 250 150.101562 " clip-rule="nonzero"/></clipPath><clipPath id="e683b8932d"><path d="M 255 215 L 499 215 L 499 550 L 255 550 Z M 255 215 " clip-rule="nonzero"/></clipPath><clipPath id="65e9c24e19"><path d="M 479.15625 553.027344 L 244.894531 537.898438 L 265.96875 211.578125 L 500.230469 226.707031 Z M 479.15625 553.027344 " clip-rule="nonzero"/></clipPath><clipPath id="7da57ad580"><path d="M 479.15625 553.027344 L 244.894531 537.898438 L 265.96875 211.578125 L 500.230469 226.707031 Z M 479.15625 553.027344 " clip-rule="nonzero"/></clipPath></defs><g clip-path="url(#4de178c031)"><path fill="#ffffff" d="M 715.222656 375.097656 C 715.222656 380.664062 715.085938 386.226562 714.8125 391.789062 C 714.542969 397.347656 714.132812 402.898438 713.585938 408.4375 C 713.039062 413.976562 712.359375 419.5 711.542969 425.003906 C 710.726562 430.511719 709.773438 435.996094 708.6875 441.453125 C 707.601562 446.914062 706.382812 452.34375 705.03125 457.742188 C 703.679688 463.140625 702.195312 468.503906 700.578125 473.832031 C 698.960938 479.160156 697.214844 484.441406 695.339844 489.683594 C 693.464844 494.925781 691.464844 500.117188 689.332031 505.257812 C 687.203125 510.402344 684.949219 515.488281 682.566406 520.519531 C 680.1875 525.554688 677.6875 530.523438 675.0625 535.433594 C 672.4375 540.34375 669.695312 545.183594 666.832031 549.957031 C 663.972656 554.734375 660.996094 559.433594 657.902344 564.0625 C 654.808594 568.691406 651.605469 573.238281 648.289062 577.710938 C 644.972656 582.183594 641.550781 586.570312 638.019531 590.871094 C 634.488281 595.175781 630.851562 599.386719 627.113281 603.511719 C 623.375 607.636719 619.539062 611.667969 615.605469 615.605469 C 611.667969 619.539062 607.636719 623.375 603.511719 627.113281 C 599.386719 630.851562 595.175781 634.488281 590.871094 638.019531 C 586.570312 641.550781 582.183594 644.972656 577.710938 648.289062 C 573.238281 651.605469 568.691406 654.808594 564.0625 657.902344 C 559.433594 660.996094 554.734375 663.972656 549.957031 666.832031 C 545.183594 669.695312 540.34375 672.4375 535.433594 675.0625 C 530.523438 677.6875 525.554688 680.1875 520.519531 682.566406 C 515.488281 684.949219 510.402344 687.203125 505.257812 689.332031 C 500.117188 691.464844 494.925781 693.464844 489.683594 695.339844 C 484.441406 697.21875 479.160156 698.960938 473.832031 700.578125 C 468.503906 702.195312 463.140625 703.679688 457.742188 705.03125 C 452.34375 706.382812 446.914062 707.601562 441.453125 708.6875 C 435.996094 709.773438 430.511719 710.726562 425.003906 711.542969 C 419.5 712.359375 413.976562 713.039062 408.4375 713.585938 C 402.898438 714.132812 397.347656 714.542969 391.789062 714.8125 C 386.226562 715.085938 380.664062 715.222656 375.097656 715.222656 C 369.53125 715.222656 363.96875 715.085938 358.410156 714.8125 C 352.851562 714.542969 347.300781 714.132812 341.761719 713.585938 C 336.222656 713.039062 330.699219 712.359375 325.191406 711.542969 C 319.6875 710.726562 314.203125 709.773438 308.742188 708.6875 C 303.285156 707.601562 297.855469 706.382812 292.457031 705.03125 C 287.054688 703.679688 281.691406 702.195312 276.367188 700.578125 C 271.039062 698.960938 265.753906 697.21875 260.515625 695.339844 C 255.273438 693.464844 250.082031 691.464844 244.9375 689.332031 C 239.796875 687.203125 234.707031 684.949219 229.675781 682.566406 C 224.644531 680.1875 219.675781 677.6875 214.765625 675.0625 C 209.855469 672.4375 205.015625 669.695312 200.238281 666.832031 C 195.464844 663.972656 190.765625 660.996094 186.136719 657.902344 C 181.507812 654.808594 176.957031 651.605469 172.488281 648.289062 C 168.015625 644.972656 163.628906 641.550781 159.324219 638.019531 C 155.023438 634.488281 150.808594 630.851562 146.683594 627.113281 C 142.558594 623.375 138.53125 619.539062 134.59375 615.605469 C 130.65625 611.667969 126.820312 607.636719 123.082031 603.511719 C 119.34375 599.386719 115.710938 595.175781 112.179688 590.871094 C 108.648438 586.570312 105.222656 582.183594 101.90625 577.710938 C 98.59375 573.238281 95.386719 568.691406 92.296875 564.0625 C 89.203125 559.433594 86.226562 554.734375 83.363281 549.957031 C 80.503906 545.183594 77.757812 540.34375 75.136719 535.433594 C 72.511719 530.523438 70.007812 525.554688 67.628906 520.519531 C 65.25 515.488281 62.996094 510.402344 60.863281 505.257812 C 58.734375 500.117188 56.730469 494.925781 54.855469 489.683594 C 52.980469 484.441406 51.234375 479.160156 49.621094 473.832031 C 48.003906 468.503906 46.519531 463.140625 45.167969 457.742188 C 43.816406 452.34375 42.59375 446.914062 41.507812 441.453125 C 40.421875 435.996094 39.472656 430.511719 38.65625 425.003906 C 37.839844 419.5 37.15625 413.976562 36.613281 408.4375 C 36.066406 402.898438 35.65625 397.347656 35.382812 391.789062 C 35.109375 386.226562 34.972656 380.664062 34.972656 375.097656 C 34.972656 369.53125 35.109375 363.96875 35.382812 358.410156 C 35.65625 352.851562 36.066406 347.300781 36.613281 341.761719 C 37.15625 336.222656 37.839844 330.699219 38.65625 325.191406 C 39.472656 319.6875 40.421875 314.203125 41.507812 308.742188 C 42.59375 303.285156 43.816406 297.855469 45.167969 292.457031 C 46.519531 287.054688 48.003906 281.691406 49.621094 276.367188 C 51.234375 271.039062 52.980469 265.753906 54.855469 260.515625 C 56.730469 255.273438 58.734375 250.082031 60.863281 244.9375 C 62.996094 239.796875 65.25 234.707031 67.628906 229.675781 C 70.007812 224.644531 72.511719 219.675781 75.136719 214.765625 C 77.757812 209.855469 80.503906 205.015625 83.363281 200.238281 C 86.226562 195.464844 89.203125 190.765625 92.296875 186.136719 C 95.386719 181.507812 98.59375 176.957031 101.90625 172.488281 C 105.222656 168.015625 108.648438 163.628906 112.179688 159.324219 C 115.710938 155.023438 119.34375 150.808594 123.082031 146.683594 C 126.820312 142.558594 130.65625 138.53125 134.59375 134.59375 C 138.53125 130.660156 142.558594 126.820312 146.683594 123.082031 C 150.808594 119.34375 155.023438 115.710938 159.324219 112.179688 C 163.628906 108.648438 168.015625 105.222656 172.488281 101.90625 C 176.957031 98.59375 181.507812 95.386719 186.136719 92.296875 C 190.765625 89.203125 195.464844 86.226562 200.238281 83.363281 C 205.015625 80.503906 209.855469 77.757812 214.765625 75.136719 C 219.675781 72.511719 224.644531 70.007812 229.675781 67.628906 C 234.707031 65.25 239.796875 62.996094 244.9375 60.863281 C 250.082031 58.734375 255.273438 56.730469 260.515625 54.855469 C 265.753906 52.980469 271.039062 51.234375 276.367188 49.621094 C 281.691406 48.003906 287.054688 46.519531 292.457031 45.167969 C 297.855469 43.816406 303.285156 42.59375 308.742188 41.507812 C 314.203125 40.421875 319.6875 39.472656 325.191406 38.65625 C 330.699219 37.839844 336.222656 37.15625 341.761719 36.613281 C 347.300781 36.066406 352.851562 35.65625 358.410156 35.382812 C 363.96875 35.109375 369.53125 34.972656 375.097656 34.972656 C 380.664062 34.972656 386.226562 35.109375 391.789062 35.382812 C 397.347656 35.65625 402.898438 36.066406 408.4375 36.613281 C 413.976562 37.15625 419.5 37.839844 425.003906 38.65625 C 430.511719 39.472656 435.996094 40.421875 441.453125 41.507812 C 446.914062 42.59375 452.34375 43.816406 457.742188 45.167969 C 463.140625 46.519531 468.503906 48.003906 473.832031 49.621094 C 479.160156 51.234375 484.441406 52.980469 489.683594 54.855469 C 494.925781 56.730469 500.117188 58.734375 505.257812 60.863281 C 510.402344 62.996094 515.488281 65.25 520.519531 67.628906 C 525.554688 70.007812 530.523438 72.511719 535.433594 75.136719 C 540.34375 77.757812 545.183594 80.503906 549.957031 83.363281 C 554.734375 86.226562 559.433594 89.203125 564.0625 92.296875 C 568.691406 95.386719 573.238281 98.59375 577.710938 101.90625 C 582.183594 105.222656 586.570312 108.648438 590.871094 112.179688 C 595.175781 115.710938 599.386719 119.34375 603.511719 123.082031 C 607.636719 126.820312 611.667969 130.660156 615.605469 134.59375 C 619.539062 138.53125 623.375 142.558594 627.113281 146.683594 C 630.851562 150.808594 634.488281 155.023438 638.019531 159.324219 C 641.550781 163.628906 644.972656 168.015625 648.289062 172.488281 C 651.605469 176.957031 654.808594 181.507812 657.902344 186.136719 C 660.996094 190.765625 663.972656 195.464844 666.832031 200.238281 C 669.695312 205.015625 672.4375 209.855469 675.0625 214.765625 C 677.6875 219.675781 680.1875 224.644531 682.566406 229.675781 C 684.949219 234.707031 687.203125 239.796875 689.332031 244.9375 C 691.464844 250.082031 693.464844 255.273438 695.339844 260.515625 C 697.214844 265.753906 698.960938 271.039062 700.578125 276.367188 C 702.195312 281.691406 703.679688 287.054688 705.03125 292.457031 C 706.382812 297.855469 707.601562 303.285156 708.6875 308.742188 C 709.773438 314.203125 710.726562 319.6875 711.542969 325.191406 C 712.359375 330.699219 713.039062 336.222656 713.585938 341.761719 C 714.132812 347.300781 714.542969 352.851562 714.8125 358.410156 C 715.085938 363.96875 715.222656 369.53125 715.222656 375.097656 Z M 715.222656 375.097656 " fill-opacity="1" fill-rule="nonzero"/></g><g clip-path="url(#ecfbf1e326)"><path fill="#1976d2" d="M 221.605469 373.660156 C 221.605469 296.542969 280.386719 233.253906 356.386719 225.980469 L 356.386719 150.171875 C 238.777344 157.425781 145.632812 254.980469 145.632812 373.660156 C 145.632812 426.402344 164.136719 474.539062 194.507812 513.433594 C 202.449219 523.328125 211.023438 532.566406 221.605469 541.128906 Z M 221.605469 373.660156 " fill-opacity="1" fill-rule="evenodd"/></g><g clip-path="url(#e90e998a9b)"><path fill="#1976d2" d="M 370.238281 522.675781 C 320.6875 522.675781 277.09375 498.933594 250.015625 461.347656 L 250.015625 562.878906 C 285.035156 585.285156 325.96875 597.824219 370.238281 597.824219 C 413.179688 597.824219 453.480469 585.964844 487.824219 564.191406 L 521.511719 597.824219 L 627.882812 597.824219 L 544.640625 514.746094 C 551.25 506.183594 557.863281 497.621094 563.144531 489.039062 C 582.957031 455.425781 594.847656 415.851562 594.847656 373.660156 C 594.847656 254.980469 501.699219 157.425781 384.769531 150.171875 L 384.769531 225.980469 C 460.089844 233.253906 519.550781 296.542969 519.550781 373.660156 C 519.550781 394.757812 514.921875 415.199219 506.980469 433 C 502.355469 442.890625 497.074219 452.128906 491.140625 460.691406 C 475.933594 481.789062 456.121094 498.277344 432.335938 508.828125 C 413.179688 518.042969 392.714844 522.675781 370.238281 522.675781 Z M 370.238281 522.675781 " fill-opacity="1" fill-rule="evenodd"/></g><g clip-path="url(#e683b8932d)"><g clip-path="url(#65e9c24e19)"><g clip-path="url(#7da57ad580)"><path fill="#1976d2" d="M 262.847656 313.257812 C 264.722656 322.082031 268.824219 331.207031 275.039062 340.371094 C 281.738281 350.246094 291.117188 360.753906 302.910156 371.589844 C 315.019531 382.714844 330.570312 394.648438 349.117188 407.054688 C 370.382812 421.316406 387.53125 433.765625 400.109375 444.070312 C 413.453125 454.988281 423.371094 464.828125 430.417969 474.140625 C 438.144531 484.339844 442.976562 494.40625 444.773438 504.046875 C 446.414062 512.847656 446.574219 522.195312 445.25 531.835938 C 444.476562 537.449219 442.8125 542.890625 440.273438 548.105469 C 439.648438 549.382812 441.328125 550.535156 442.296875 549.488281 C 446.660156 544.773438 450.546875 539.550781 453.917969 533.863281 C 460.351562 523.027344 464.546875 510.742188 466.390625 497.328125 C 467.890625 486.433594 468.136719 476.570312 467.121094 468.015625 C 466.234375 460.472656 463.382812 452.761719 458.636719 445.066406 C 453.441406 436.617188 445.578125 427.597656 435.253906 418.246094 C 424.355469 408.375 409.414062 397.0625 390.847656 384.621094 L 390.699219 384.519531 C 371.132812 371.109375 354.933594 359.21875 342.550781 349.175781 C 329.363281 338.46875 319.359375 328.707031 311.964844 319.320312 C 303.828125 308.996094 298.542969 298.390625 296.257812 287.796875 C 294.109375 277.789062 293.816406 266.925781 295.386719 255.5 C 296.835938 244.992188 300.339844 235.304688 305.808594 226.6875 C 307.839844 223.5 310.097656 220.5 312.574219 217.695312 C 313.660156 216.460938 312.199219 214.640625 310.765625 215.449219 C 309.1875 216.34375 307.628906 217.269531 306.097656 218.234375 C 294.660156 225.429688 284.773438 234.914062 276.714844 246.425781 C 268.796875 257.722656 263.941406 270.554688 261.863281 285.667969 C 260.59375 294.882812 260.925781 304.164062 262.847656 313.257812 Z M 448.84375 228.21875 C 455.222656 232.714844 461.261719 237.84375 466.914062 243.574219 C 478.414062 255.230469 488.316406 269.726562 496.355469 286.664062 L 498.597656 233.535156 C 498.484375 233.582031 498.371094 233.625 498.257812 233.664062 C 493.488281 235.445312 489.113281 235.75 485.957031 235.613281 C 481.8125 235.4375 477.335938 234.789062 472.65625 233.675781 C 468.511719 232.691406 463.765625 231.300781 458.554688 229.53125 C 455.554688 228.503906 452.585938 227.527344 449.644531 226.605469 C 448.644531 226.292969 447.984375 227.617188 448.84375 228.21875 Z M 287.414062 539.957031 C 280.753906 537.449219 276.253906 536.140625 272.703125 535.652344 C 266.367188 534.78125 260.609375 535.289062 255.523438 537.148438 L 261.550781 493.339844 C 261.644531 493.621094 261.738281 493.902344 261.832031 494.183594 C 267.304688 510.449219 274.472656 524.164062 283.136719 534.964844 C 284.519531 536.691406 285.949219 538.355469 287.414062 539.957031 " fill-opacity="1" fill-rule="nonzero"/></g></g></g></svg>