<svg xmlns="http://www.w3.org/2000/svg" xmlns:xlink="http://www.w3.org/1999/xlink" width="800" zoomAndPan="magnify" viewBox="0 0 600 599.999999" height="800" preserveAspectRatio="xMidYMid meet" version="1.0"><defs><g/></defs><rect x="-60" width="720" fill="#ffffff" y="-60" height="719.999999" fill-opacity="1"/><rect x="-60" width="720" fill="#ffffff" y="-60" height="719.999999" fill-opacity="1"/><rect x="-60" width="720" fill="#000000" y="-60" height="719.999999" fill-opacity="1"/><g fill="#468dff" fill-opacity="1"><g transform="translate(316.761433, 403.59121)"><g><path d="M 107.578125 -55.921875 C 107.578125 -47.660156 106.441406 -40.097656 104.171875 -33.234375 C 101.910156 -26.378906 98.53125 -20.488281 94.03125 -15.5625 C 89.53125 -10.644531 83.945312 -6.820312 77.28125 -4.09375 C 70.625 -1.363281 62.890625 0 54.078125 0 L 4.203125 0 L 4.203125 -8.046875 L 10.546875 -8.046875 C 11.679688 -8.046875 12.710938 -8.15625 13.640625 -8.375 C 14.578125 -8.59375 15.390625 -9.046875 16.078125 -9.734375 C 16.773438 -10.421875 17.316406 -11.40625 17.703125 -12.6875 C 18.097656 -13.96875 18.296875 -15.691406 18.296875 -17.859375 L 18.296875 -90.6875 C 18.296875 -92.695312 18.097656 -94.304688 17.703125 -95.515625 C 17.316406 -96.722656 16.765625 -97.644531 16.046875 -98.28125 C 15.335938 -98.914062 14.515625 -99.34375 13.578125 -99.5625 C 12.640625 -99.789062 11.628906 -99.90625 10.546875 -99.90625 L 4.203125 -99.90625 L 4.203125 -107.875 L 54.078125 -107.875 C 62.441406 -107.875 69.929688 -106.78125 76.546875 -104.59375 C 83.160156 -102.40625 88.765625 -99.132812 93.359375 -94.78125 C 97.960938 -90.425781 101.484375 -85 103.921875 -78.5 C 106.359375 -72.007812 107.578125 -64.484375 107.578125 -55.921875 Z M 82.046875 -55.921875 C 82.046875 -70.335938 79.398438 -81.0625 74.109375 -88.09375 C 68.828125 -95.132812 61.046875 -98.65625 50.765625 -98.65625 L 42.125 -98.65625 L 42.125 -9.375 L 50.609375 -9.375 C 55.773438 -9.375 60.328125 -10.441406 64.265625 -12.578125 C 68.203125 -14.722656 71.484375 -17.8125 74.109375 -21.84375 C 76.742188 -25.875 78.722656 -30.753906 80.046875 -36.484375 C 81.378906 -42.210938 82.046875 -48.691406 82.046875 -55.921875 Z M 82.046875 -55.921875 "/></g></g></g><g fill="#ff0794" fill-opacity="1"><g transform="translate(167.323337, 379.580619)"><g><path d="M 131.84375 -163.71875 C 129.976562 -163.71875 128.003906 -163.421875 125.921875 -162.828125 C 123.835938 -162.234375 121.773438 -161.085938 119.734375 -159.390625 C 117.691406 -157.691406 115.710938 -155.332031 113.796875 -152.3125 C 111.890625 -149.289062 110.234375 -145.316406 108.828125 -140.390625 C 107.421875 -135.460938 106.289062 -129.488281 105.4375 -122.46875 C 104.59375 -115.457031 104.171875 -107.109375 104.171875 -97.421875 C 104.171875 -87.816406 104.59375 -79.441406 105.4375 -72.296875 C 106.289062 -65.160156 107.421875 -59.039062 108.828125 -53.9375 C 110.234375 -48.832031 111.890625 -44.644531 113.796875 -41.375 C 115.710938 -38.101562 117.691406 -35.53125 119.734375 -33.65625 C 121.773438 -31.789062 123.835938 -30.492188 125.921875 -29.765625 C 128.003906 -29.046875 129.976562 -28.6875 131.84375 -28.6875 C 134.394531 -28.6875 136.773438 -29.238281 138.984375 -30.34375 L 138.984375 -79.1875 C 138.984375 -80.539062 139.28125 -81.875 139.875 -83.1875 C 140.46875 -84.507812 141.875 -85.171875 144.09375 -85.171875 L 157.46875 -85.171875 C 158.238281 -85.171875 159.003906 -85.128906 159.765625 -85.046875 C 160.535156 -84.960938 161.21875 -84.726562 161.8125 -84.34375 C 162.40625 -83.96875 162.867188 -83.375 163.203125 -82.5625 C 163.546875 -81.75 163.71875 -80.625 163.71875 -79.1875 L 163.71875 -6 C 163.71875 -4.550781 163.546875 -3.421875 163.203125 -2.609375 C 162.867188 -1.804688 162.40625 -1.210938 161.8125 -0.828125 C 161.21875 -0.441406 160.535156 -0.207031 159.765625 -0.125 C 159.003906 -0.0390625 158.238281 0 157.46875 0 L 144.09375 0 C 142.976562 0 142.101562 -0.164062 141.46875 -0.5 C 140.832031 -0.84375 140.320312 -1.3125 139.9375 -1.90625 C 139.5625 -2.507812 139.304688 -3.171875 139.171875 -3.890625 C 139.046875 -4.609375 138.984375 -5.3125 138.984375 -6 L 138.984375 -9.6875 C 136.265625 -7.738281 133.242188 -5.867188 129.921875 -4.078125 C 126.609375 -2.296875 122.972656 -0.726562 119.015625 0.625 C 115.066406 1.988281 110.796875 3.050781 106.203125 3.8125 C 101.617188 4.582031 96.691406 4.96875 91.421875 4.96875 C 85.210938 4.96875 78.835938 4.414062 72.296875 3.3125 C 65.753906 2.207031 59.398438 0.234375 53.234375 -2.609375 C 47.066406 -5.460938 41.222656 -9.351562 35.703125 -14.28125 C 30.179688 -19.207031 25.359375 -25.453125 21.234375 -33.015625 C 17.109375 -40.585938 13.832031 -49.664062 11.40625 -60.25 C 8.988281 -70.832031 7.78125 -83.222656 7.78125 -97.421875 C 7.78125 -109.492188 8.988281 -120.140625 11.40625 -129.359375 C 13.832031 -138.578125 17.128906 -146.585938 21.296875 -153.390625 C 25.460938 -160.191406 30.328125 -165.882812 35.890625 -170.46875 C 41.460938 -175.0625 47.394531 -178.738281 53.6875 -181.5 C 59.976562 -184.269531 66.457031 -186.226562 73.125 -187.375 C 79.800781 -188.519531 86.328125 -189.09375 92.703125 -189.09375 C 99.671875 -189.09375 106.300781 -188.539062 112.59375 -187.4375 C 118.882812 -186.332031 124.640625 -184.929688 129.859375 -183.234375 C 135.085938 -181.535156 139.742188 -179.625 143.828125 -177.5 C 147.910156 -175.375 151.269531 -173.289062 153.90625 -171.25 C 154.15625 -170.988281 154.453125 -170.707031 154.796875 -170.40625 C 155.140625 -170.113281 155.3125 -169.753906 155.3125 -169.328125 C 155.3125 -168.992188 155.179688 -168.570312 154.921875 -168.0625 L 149.4375 -159.390625 C 148.925781 -158.617188 148.332031 -158.234375 147.65625 -158.234375 C 147.144531 -158.234375 146.441406 -158.507812 145.546875 -159.0625 C 144.660156 -159.613281 143.535156 -160.25 142.171875 -160.96875 C 140.816406 -161.695312 139.285156 -162.335938 137.578125 -162.890625 C 135.878906 -163.441406 133.96875 -163.71875 131.84375 -163.71875 Z M 131.84375 -163.71875 "/></g></g></g></svg>